<svg width="148" height="56" viewBox="0 0 148 56" fill="none" xmlns="http://www.w3.org/2000/svg">
<g clip-path="url(#clip0_164_3625)">
<path fill-rule="evenodd" clip-rule="evenodd" d="M28.019 56C22.4756 56.0012 17.0564 54.3597 12.4468 51.2832C7.83717 48.2066 4.24417 43.8332 2.12226 38.7161C0.000345068 33.5989 -0.555156 27.9679 0.526001 22.5353C1.60716 17.1027 4.27641 12.1124 8.19615 8.19576C12.1159 4.27909 17.1101 1.61193 22.547 0.531622C27.9839 -0.548687 33.6193 0.0063777 38.7404 2.12662C43.8616 4.24687 48.2384 7.83704 51.3174 12.4431C54.3964 17.0491 56.0391 22.464 56.0379 28.003C56.0298 35.4258 53.0752 42.5422 47.8224 47.7909C42.5696 53.0396 35.4476 55.9919 28.019 56Z" fill="#00A74C"/>
<path fill-rule="evenodd" clip-rule="evenodd" d="M28.5529 23.4586C27.6529 23.4573 26.7727 23.723 26.0238 24.2219C25.275 24.7208 24.6911 25.4305 24.3461 26.2611C24.0011 27.0918 23.9105 28.006 24.0858 28.8882C24.2611 29.7703 24.6944 30.5806 25.3308 31.2165C25.9672 31.8525 26.7782 32.2854 27.661 32.4606C28.5438 32.6357 29.4588 32.5452 30.2901 32.2005C31.1214 31.8558 31.8317 31.2723 32.331 30.524C32.8302 29.7758 33.0961 28.8963 33.0949 27.9969C33.0933 26.7938 32.6142 25.6403 31.7628 24.7896C30.9113 23.9388 29.757 23.4602 28.5529 23.4586ZM28.5529 35.4178C27.0841 35.4178 25.6482 34.9826 24.4269 34.1672C23.2055 33.3517 22.2536 32.1928 21.6915 30.8368C21.1294 29.4808 20.9824 27.9887 21.2689 26.5492C21.5555 25.1097 22.2628 23.7874 23.3015 22.7496C24.3401 21.7118 25.6634 21.005 27.104 20.7186C28.5447 20.4323 30.038 20.5793 31.395 21.1409C32.7521 21.7026 33.9119 22.6537 34.728 23.8741C35.5441 25.0945 35.9796 26.5292 35.9796 27.9969C35.978 29.9646 35.195 31.8512 33.8026 33.2425C32.4102 34.6338 30.5221 35.4162 28.5529 35.4178Z" fill="white"/>
<path fill-rule="evenodd" clip-rule="evenodd" d="M16.4063 29.8C15.9918 30.7602 15.2586 31.5482 14.3303 32.031C13.402 32.5139 12.3354 32.6621 11.3105 32.4506C10.2856 32.2392 9.36502 31.681 8.70404 30.8702C8.04307 30.0595 7.68212 29.0457 7.68212 28C7.68212 26.9543 8.04307 25.9405 8.70404 25.1298C9.36502 24.319 10.2856 23.7608 11.3105 23.5494C12.3354 23.3379 13.402 23.4861 14.3303 23.969C15.2586 24.4518 15.9918 25.2398 16.4063 26.2H19.4138C18.9742 24.443 17.9067 22.9073 16.4124 21.8822C14.9182 20.8571 13.1003 20.4134 11.3014 20.6347C9.50246 20.856 7.84663 21.7271 6.64585 23.0837C5.44506 24.4403 4.78223 26.1889 4.78223 28C4.78223 29.8111 5.44506 31.5597 6.64585 32.9163C7.84663 34.273 9.50246 35.144 11.3014 35.3653C13.1003 35.5866 14.9182 35.1429 16.4124 34.1178C17.9067 33.0928 18.9742 31.557 19.4138 29.8H16.4063Z" fill="white"/>
<path fill-rule="evenodd" clip-rule="evenodd" d="M44.2471 26.6661C41.3562 26.0528 41.0739 25.372 41.0739 24.8875C41.0739 24.1761 42.2032 23.2807 44.0998 23.2807C45.4747 23.2807 46.5242 23.759 47.095 24.7955H50.1639C49.7343 22.3423 47.3344 20.5883 44.1121 20.5883C40.6565 20.5883 38.0295 22.3546 38.0295 24.8814C38.0295 28.2054 41.8902 28.7022 43.707 29.1745C46.5917 29.892 47.2976 30.3152 47.2976 31.0143C47.2976 32.0937 45.8491 32.7377 44.2287 32.7377C42.7311 32.7377 41.2335 32.014 40.8652 30.8978H37.8945C38.2137 33.7435 41.2519 35.4423 44.2287 35.4423C48.4822 35.4423 50.3665 33.2222 50.3665 31.0266C50.3481 27.8926 46.8495 27.2303 44.2471 26.6661Z" fill="white"/>
<path d="M88.433 20.8336H86.4873V35.1847H88.433V20.8336Z" fill="#231F20"/>
<path fill-rule="evenodd" clip-rule="evenodd" d="M78.3302 35.1848H76.3906V27.6596C76.3923 25.8536 77.1114 24.1221 78.39 22.8456C79.6687 21.5691 81.4022 20.8521 83.2097 20.8521V22.79C81.9191 22.7981 80.6835 23.3135 79.7704 24.2248C78.8572 25.1361 78.3398 26.37 78.3302 27.6596V35.1848Z" fill="#231F20"/>
<path fill-rule="evenodd" clip-rule="evenodd" d="M66.8157 33.4123C65.7304 33.4123 64.6695 33.0908 63.7672 32.4883C62.8648 31.8859 62.1615 31.0296 61.7462 30.0277C61.3308 29.0258 61.2222 27.9234 61.4339 26.8599C61.6456 25.7963 62.1683 24.8193 62.9357 24.0525C63.703 23.2857 64.6807 22.7636 65.7451 22.552C66.8096 22.3404 67.9129 22.449 68.9155 22.864C69.9182 23.279 70.7751 23.9817 71.3781 24.8834C71.981 25.785 72.3028 26.8451 72.3028 27.9295C72.2932 29.3807 71.712 30.7696 70.685 31.7958C69.658 32.8219 68.268 33.4027 66.8157 33.4123ZM66.8157 20.5331C65.7743 20.5326 64.7444 20.7507 63.7928 21.1733C62.8412 21.5959 61.9891 22.2136 61.2917 22.9863V16.4363H59.3521V27.9295C59.3461 29.3984 59.7761 30.8361 60.5878 32.0608C61.3994 33.2855 62.5563 34.2422 63.9122 34.81C65.268 35.3777 66.7619 35.5309 68.2049 35.2503C69.6479 34.9697 70.9752 34.2678 72.019 33.2334C73.0628 32.199 73.7761 30.8786 74.0689 29.4391C74.3616 27.9996 74.2206 26.5057 73.6636 25.1463C73.1067 23.7868 72.1588 22.623 70.9399 21.8019C69.721 20.9808 68.2857 20.5392 66.8157 20.5331Z" fill="#231F20"/>
<path fill-rule="evenodd" clip-rule="evenodd" d="M98.9163 33.4123C97.831 33.4123 96.7701 33.0908 95.8678 32.4883C94.9654 31.8859 94.2621 31.0296 93.8468 30.0277C93.4315 29.0258 93.3228 27.9234 93.5345 26.8599C93.7463 25.7963 94.2689 24.8193 95.0363 24.0525C95.8037 23.2857 96.7814 22.7636 97.8458 22.552C98.9102 22.3404 100.013 22.449 101.016 22.864C102.019 23.279 102.876 23.9817 103.479 24.8834C104.082 25.785 104.403 26.8451 104.403 27.9295C104.402 29.3831 103.823 30.7768 102.794 31.8047C101.766 32.8325 100.371 33.4107 98.9163 33.4123ZM104.44 16.4363V22.9434C103.272 21.6683 101.694 20.8416 99.9802 20.6064C98.2662 20.3712 96.5238 20.7424 95.0548 21.6556C93.5858 22.5688 92.4827 23.9666 91.9364 25.6069C91.3901 27.2473 91.4352 29.0269 92.0637 30.6375C92.6922 32.2482 93.8646 33.5885 95.3779 34.4264C96.8912 35.2643 98.6501 35.547 100.35 35.2255C102.05 34.9041 103.584 33.9988 104.686 32.6664C105.789 31.3339 106.39 29.6582 106.386 27.9295V16.4363H104.44Z" fill="#231F20"/>
<path fill-rule="evenodd" clip-rule="evenodd" d="M116.2 33.4123C115.115 33.4123 114.054 33.0908 113.152 32.4883C112.249 31.8858 111.546 31.0295 111.131 30.0277C110.715 29.0258 110.607 27.9234 110.819 26.8598C111.03 25.7962 111.553 24.8193 112.32 24.0525C113.088 23.2857 114.065 22.7635 115.13 22.552C116.194 22.3404 117.297 22.449 118.3 22.864C119.303 23.2789 120.16 23.9817 120.763 24.8833C121.366 25.785 121.687 26.845 121.687 27.9295C121.686 29.3831 121.107 30.7767 120.079 31.8046C119.05 32.8325 117.655 33.4107 116.2 33.4123ZM116.2 20.5331C114.961 20.5295 113.741 20.8354 112.651 21.4228C111.561 22.0103 110.635 22.8607 109.957 23.8968C109.279 24.933 108.871 26.1219 108.771 27.3556C108.67 28.5893 108.879 29.8286 109.38 30.9609C109.88 32.0932 110.656 33.0825 111.636 33.8389C112.617 34.5954 113.771 35.0949 114.994 35.2922C116.217 35.4894 117.47 35.3782 118.639 34.9685C119.808 34.5588 120.856 33.8636 121.687 32.9462V34.6389C121.709 36.0667 121.164 37.4449 120.171 38.4723C119.179 39.4997 117.819 40.0928 116.391 40.1218C115.284 40.1069 114.21 39.7482 113.317 39.0954C112.423 38.4425 111.756 37.528 111.407 36.4788H109.394C109.798 38.2194 110.836 39.7476 112.305 40.7667C113.774 41.7859 115.57 42.2233 117.343 41.994C119.117 41.7647 120.742 40.8852 121.903 39.526C123.064 38.1669 123.679 36.4252 123.627 34.6389V27.9295C123.617 25.9666 122.831 24.0872 121.44 22.7015C120.048 21.3158 118.165 20.5363 116.2 20.5331Z" fill="#231F20"/>
<path fill-rule="evenodd" clip-rule="evenodd" d="M133.337 22.4834C134.595 22.48 135.816 22.9127 136.791 23.7078C137.766 24.503 138.434 25.6113 138.683 26.844H128.009C128.26 25.616 128.927 24.512 129.898 23.7178C130.868 22.9236 132.083 22.4877 133.337 22.4834ZM137.86 30.9592C137.362 31.7042 136.69 32.3169 135.902 32.7443C135.114 33.1717 134.234 33.401 133.337 33.4124C132.049 33.4071 130.805 32.9477 129.824 32.1151C128.842 31.2825 128.187 30.1303 127.973 28.8617H140.696V27.8743C140.654 26.069 139.947 24.3428 138.71 23.0267C137.472 21.7105 135.792 20.8971 133.992 20.7424C132.191 20.5877 130.397 21.1027 128.953 22.1885C127.509 23.2743 126.517 24.8545 126.167 26.6261C125.818 28.3977 126.135 30.236 127.058 31.7883C127.981 33.3406 129.446 34.4978 131.17 35.0378C132.894 35.5778 134.758 35.4627 136.402 34.7146C138.047 33.9664 139.358 32.6378 140.082 30.9837L137.86 30.9592Z" fill="#231F20"/>
<path fill-rule="evenodd" clip-rule="evenodd" d="M144.673 23.1396H145.471C145.599 23.147 145.724 23.1053 145.821 23.0231C145.865 22.9802 145.898 22.9283 145.919 22.8711C145.941 22.8139 145.949 22.7527 145.944 22.6919C145.947 22.6186 145.934 22.5454 145.907 22.4772C145.882 22.4238 145.844 22.3774 145.797 22.3423C145.75 22.312 145.698 22.2912 145.643 22.281C145.584 22.2747 145.524 22.2747 145.465 22.281H144.673V23.1519V23.1396ZM144.188 21.8701H145.514C145.76 21.8498 146.004 21.9196 146.202 22.0663C146.278 22.1374 146.337 22.2241 146.377 22.3204C146.416 22.4168 146.434 22.5205 146.429 22.6244C146.432 22.7354 146.413 22.8459 146.374 22.9495C146.338 23.0262 146.291 23.0967 146.232 23.158C146.189 23.2058 146.137 23.2453 146.079 23.2745C146.047 23.2951 146.012 23.3097 145.975 23.3174L146.103 23.3542C146.155 23.3771 146.201 23.4105 146.238 23.4524C146.286 23.5029 146.322 23.5637 146.343 23.6302C146.371 23.7173 146.386 23.8084 146.386 23.9001C146.376 24.0512 146.376 24.2028 146.386 24.3539C146.403 24.4547 146.445 24.5496 146.509 24.6299H145.987C145.951 24.5721 145.928 24.5073 145.919 24.4398C145.919 24.3601 145.919 24.2926 145.919 24.2251C145.93 24.115 145.93 24.0041 145.919 23.8939C145.912 23.8129 145.884 23.735 145.84 23.667C145.795 23.6074 145.736 23.5608 145.668 23.5321C145.579 23.5019 145.485 23.4874 145.391 23.4892H144.679V24.6299H144.195L144.188 21.8701Z" fill="#231F20"/>
<path fill-rule="evenodd" clip-rule="evenodd" d="M145.263 20.9134C144.799 20.9134 144.346 21.0508 143.96 21.3082C143.574 21.5656 143.274 21.9315 143.096 22.3596C142.919 22.7877 142.873 23.2588 142.963 23.7132C143.054 24.1677 143.277 24.5851 143.605 24.9128C143.933 25.2404 144.35 25.4635 144.805 25.5539C145.26 25.6443 145.731 25.598 146.16 25.4206C146.588 25.2433 146.955 24.943 147.212 24.5577C147.47 24.1725 147.607 23.7195 147.607 23.2562C147.606 22.6353 147.358 22.0404 146.919 21.6013C146.479 21.1623 145.884 20.915 145.263 20.9134ZM145.263 25.9915C144.72 25.9927 144.188 25.8328 143.736 25.532C143.284 25.2312 142.931 24.8031 142.723 24.302C142.515 23.8008 142.46 23.2491 142.565 22.7167C142.671 22.1844 142.932 21.6953 143.317 21.3115C143.701 20.9278 144.19 20.6666 144.723 20.561C145.256 20.4554 145.808 20.5102 146.309 20.7185C146.811 20.9267 147.239 21.279 147.54 21.7308C147.841 22.1826 148.001 22.7134 148 23.2562C147.998 23.9811 147.71 24.6759 147.197 25.1885C146.684 25.7011 145.988 25.9899 145.263 25.9915Z" fill="#231F20"/>
</g>
<defs>
<clipPath id="clip0_164_3625">
<rect width="148" height="56" fill="white"/>
</clipPath>
</defs>
</svg>
