<svg width="25" height="24" viewBox="0 0 25 24" fill="none" xmlns="http://www.w3.org/2000/svg">
<rect width="24" height="24" transform="translate(0.5)" fill="white"/>
<path fill-rule="evenodd" clip-rule="evenodd" d="M15.706 16.617L18.796 19.703C19.186 20.099 19.816 20.099 20.206 19.703C20.598 19.308 20.598 18.669 20.206 18.273L17.126 15.193C17.996 14.025 18.513 12.577 18.513 11.007C18.513 7.137 15.376 4 11.507 4C7.637 4 4.5 7.137 4.5 11.007C4.5 14.877 7.637 18.014 11.507 18.014C13.082 18.014 14.536 17.494 15.706 16.617ZM11.506 16.012C8.743 16.012 6.502 13.772 6.502 11.007C6.502 8.243 8.742 6.002 11.507 6.002C14.271 6.002 16.511 8.242 16.511 11.007C16.511 13.771 14.271 16.012 11.508 16.012H11.506Z" fill="#646F7C"/>
</svg>
